<?xml version="1.0" standalone="no"?>
<!DOCTYPE svg PUBLIC "-//W3C//DTD SVG 20010904//EN"
 "http://www.w3.org/TR/2001/REC-SVG-20010904/DTD/svg10.dtd">
<svg version="1.0" xmlns="http://www.w3.org/2000/svg"
 width="512.000000pt" height="512.000000pt" viewBox="0 0 512.000000 512.000000"
 preserveAspectRatio="xMidYMid meet">

<g transform="translate(0.000000,512.000000) scale(0.100000,-0.100000)"
fill="#000000" stroke="none">
<path d="M2410 2950 l0 -150 150 0 150 0 0 150 0 150 -150 0 -150 0 0 -150z"/>
<path d="M300 2450 l0 -150 150 0 150 0 0 150 0 150 -150 0 -150 0 0 -150z"/>
<path d="M700 2450 l0 -150 150 0 150 0 0 150 0 150 -150 0 -150 0 0 -150z"/>
<path d="M1100 2450 l0 -150 150 0 150 0 0 150 0 150 -150 0 -150 0 0 -150z"/>
<path d="M1500 2450 l0 -150 150 0 150 0 0 150 0 150 -150 0 -150 0 0 -150z"/>
<path d="M1900 2450 l0 -150 150 0 150 0 0 150 0 150 -150 0 -150 0 0 -150z"/>
<path d="M2300 2450 l0 -150 150 0 150 0 0 150 0 150 -150 0 -150 0 0 -150z"/>
<path d="M2700 2450 l0 -150 150 0 150 0 0 150 0 150 -150 0 -150 0 0 -150z"/>
<path d="M3100 2450 l0 -150 150 0 150 0 0 150 0 150 -150 0 -150 0 0 -150z"/>
<path d="M3500 2450 l0 -150 150 0 150 0 0 150 0 150 -150 0 -150 0 0 -150z"/>
<path d="M3900 2450 l0 -150 150 0 150 0 0 150 0 150 -150 0 -150 0 0 -150z"/>
<path d="M4300 2450 l0 -150 260 0 260 0 0 150 0 150 -260 0 -260 0 0 -150z"/>
<path d="M300 2050 l0 -150 180 0 180 0 0 150 0 150 -180 0 -180 0 0 -150z"/>
<path d="M760 2050 l0 -150 180 0 180 0 0 150 0 150 -180 0 -180 0 0 -150z"/>
<path d="M1680 2050 l0 -150 180 0 180 0 0 150 0 150 -180 0 -180 0 0 -150z"/>
<path d="M2140 2050 l0 -150 180 0 180 0 0 150 0 150 -180 0 -180 0 0 -150z"/>
<path d="M2600 2050 l0 -150 180 0 180 0 0 150 0 150 -180 0 -180 0 0 -150z"/>
<path d="M3060 2050 l0 -150 180 0 180 0 0 150 0 150 -180 0 -180 0 0 -150z"/>
<path d="M3520 2050 l0 -150 180 0 180 0 0 150 0 150 -180 0 -180 0 0 -150z"/>
<path d="M4460 2050 l0 -150 180 0 180 0 0 150 0 150 -180 0 -180 0 0 -150z"/>
<path d="M300 1650 l0 -150 250 0 250 0 0 150 0 150 -250 0 -250 0 0 -150z"/>
<path d="M2280 1650 l0 -150 180 0 180 0 0 150 0 150 -180 0 -180 0 0 -150z"/>
<path d="M2740 1650 l0 -150 180 0 180 0 0 150 0 150 -180 0 -180 0 0 -150z"/>
<path d="M3200 1650 l0 -150 180 0 180 0 0 150 0 150 -180 0 -180 0 0 -150z"/>
<path d="M4460 1650 l0 -150 180 0 180 0 0 150 0 150 -180 0 -180 0 0 -150z"/>
<path d="M300 1250 l0 -150 320 0 320 0 0 150 0 150 -320 0 -320 0 0 -150z"/>
<path d="M1040 1250 l0 -150 180 0 180 0 0 150 0 150 -180 0 -180 0 0 -150z"/>
<path d="M1500 1250 l0 -150 180 0 180 0 0 150 0 150 -180 0 -180 0 0 -150z"/>
<path d="M1960 1250 l0 -150 180 0 180 0 0 150 0 150 -180 0 -180 0 0 -150z"/>
<path d="M2420 1250 l0 -150 180 0 180 0 0 150 0 150 -180 0 -180 0 0 -150z"/>
<path d="M2880 1250 l0 -150 180 0 180 0 0 150 0 150 -180 0 -180 0 0 -150z"/>
<path d="M3340 1250 l0 -150 280 0 280 0 0 150 0 150 -280 0 -280 0 0 -150z"/>
<path d="M4460 1250 l0 -150 180 0 180 0 0 150 0 150 -180 0 -180 0 0 -150z"/>
<path d="M300 850 l0 -150 180 0 180 0 0 150 0 150 -180 0 -180 0 0 -150z"/>
<path d="M760 850 l0 -150 180 0 180 0 0 150 0 150 -180 0 -180 0 0 -150z"/>
</g>
</svg>
